<?xml version="1.0" encoding="utf-8"?>
<!-- Generator: Adobe Illustrator 24.1.1, SVG Export Plug-In . SVG Version: 6.00 Build 0)  -->
<svg version="1.1" id="svg" xmlns="http://www.w3.org/2000/svg" xmlns:xlink="http://www.w3.org/1999/xlink" x="0px" y="0px"
	 viewBox="0 0 400 131.2" style="enable-background:new 0 0 400 131.2;" xml:space="preserve">
<style type="text/css">
	.st0{fill-rule:evenodd;clip-rule:evenodd;}
</style>
<g id="svgg">
	<path id="path0" class="st0" d="M136.8,4.7c-1.1,1.1-1.1,0.9,9.1,11.2l9.6,9.6l-1.4,0.6c-1.8,0.8-1.8,0.8,1.6,1.7l2.9,0.8l8.9,8.9
		c4.9,4.9,8.9,8.9,8.8,9c-0.1,0-1,0.3-2.1,0.6c-22.3,5.6-20.5,11.9,4.9,17.3c2.1,0.5,5.1,1.1,5.7,1.3c0.1,0,0.5,0.1,0.9,0.2
		c0.4,0.1,0.9,0.2,1.2,0.3c0.3,0.1,1.1,0.4,1.9,0.6c4.9,1.5,8.9,3.3,8.9,4.1c0,0.4-1.7,1.5-3.2,2.2c-3.2,1.5-6.4,2.4-18.1,5.2
		c-24.6,5.9-23.7,12.2,2.6,17.9c2.1,0.5,5.1,1.1,5.7,1.3c0.1,0,0.5,0.1,0.9,0.2c0.4,0.1,0.9,0.2,1.2,0.3c0.3,0.1,1.1,0.4,1.9,0.6
		c4.9,1.5,8.9,3.3,8.9,4.1c0,0.4-1.7,1.5-3.2,2.2c-3.2,1.5-6.4,2.4-18.1,5.2c-12.9,3.1-18.1,5.8-17.6,9c0.4,2.9,5.2,5.2,16.6,8
		c4.2,1,4.7,1.1,5.2,0.2c0.8-1.3,0.1-2-2.6-2.6c-1.1-0.2-2.2-0.5-2.4-0.5c-0.5-0.1-2.2-0.6-2.6-0.7c-0.2,0-0.6-0.2-1-0.3
		c-0.4-0.1-0.6-0.2-0.7-0.2c-0.4-0.1-9.5-3.4-9.5-4.3c0-1.2,6.1-3.6,14.3-5.6c2.4-0.6,5.6-1.4,7.3-1.8c1.6-0.4,3.2-0.8,3.4-0.8
		c0.5-0.1,0.9-0.2,4.7-1.5c16.1-5.2,11.4-10.9-13.3-16.1c-1.2-0.2-2.2-0.5-2.4-0.5c-0.5-0.1-2.3-0.6-2.6-0.7c-0.2,0-0.6-0.2-1-0.3
		c-0.4-0.1-0.7-0.2-0.7-0.2s-5.3-1.7-6.6-2.2c-1.7-0.7-2.9-1.6-2.9-2c0-1.2,6.1-3.6,14.3-5.6c2.4-0.6,5.6-1.4,7.3-1.8
		c1.6-0.4,3.2-0.8,3.4-0.8c0.5-0.1,0.9-0.2,4.7-1.5c16.1-5.2,11.4-10.9-13.3-16.1c-1.2-0.2-2.2-0.5-2.4-0.5
		c-0.5-0.1-2.3-0.6-2.6-0.7c-0.2,0-0.6-0.2-0.9-0.3c-0.4-0.1-0.4-0.1-0.8-0.2c-2-0.5-9.6-3.4-9.6-4.3c0-1.4,7.6-4.1,18-6.4
		c0.2-0.1,5-4.7,10.5-10.2l10.1-10.1l0.6,1.3c0.7,1.6,0.8,1.6,1.2-0.1c0.2-0.8,0.6-2.1,0.8-2.9l0.4-1.5l9.2-9.2
		c10.7-10.8,10.3-10.3,8.7-11.3c-1-0.6-1.4-0.3-10.8,9.2l-9.3,9.3l-2.8,0.9c-3.2,1-3.2,1-1.5,1.7l1.3,0.5l-9.4,9.5l-9.4,9.5
		l-9.4-9.4l-9.4-9.4l-0.8-2.7c-1-3.1-1-3.2-1.7-1.5l-0.5,1.2l-9.6-9.6C137.8,3.6,137.9,3.7,136.8,4.7 M93.2,26.8
		c-1.1,0.4-1.7,0.9-2.2,2c-0.5,1-0.7,64.4-0.2,66c0.8,2.9,5.7,3.6,7.4,1c0.4-0.6,0.4-1.6,0.5-15c0.1-16,0.1-15.9,1.8-19.3
		c4.1-8.4,18.5-9.9,22.1-2.4c1.3,2.9,1.3,2.3,1.4,19.8c0.1,15.3,0.1,16,0.5,16.6c1.6,2.5,6,2.4,7.2-0.1c0.6-1.1,0.6-31.1,0-34.4
		c-1.6-9.4-7.5-14-17.7-13.6c-6.4,0.2-11.8,2.9-14.6,7.3l-0.7,1.2l-0.1-13.6c-0.1-13.4-0.1-13.6-0.6-14.2
		C97.2,26.7,94.9,26.1,93.2,26.8 M355.2,26.8c-1.1,0.4-1.7,0.9-2.2,2c-0.5,1-0.7,64.4-0.2,66c0.8,2.9,5.7,3.6,7.4,1
		c0.4-0.6,0.4-1.6,0.5-15c0.1-16,0.1-15.9,1.8-19.3c4.1-8.4,18.5-9.9,22.1-2.4c1.3,2.9,1.3,2.3,1.4,19.8c0.1,15.3,0.1,16,0.5,16.6
		c1.6,2.5,6,2.4,7.2-0.1c0.6-1.1,0.6-31.1,0-34.4c-1.6-9.4-7.5-14-17.7-13.6c-6.4,0.2-11.8,2.9-14.6,7.3l-0.7,1.2l-0.1-13.6
		c-0.1-13.4-0.1-13.6-0.6-14.2C359.2,26.7,356.9,26.1,355.2,26.8 M254.9,27.2c-10.9,1.1-16.8,8.1-16.8,19.9l0,1.5h-3.7
		c-5.1,0-6.4,0.7-6.4,3.4c0,2.5,1.1,3.1,6.1,3.2l4,0.1v19.6v19.6l0.5,1c1.4,2.8,5.7,2.9,7.3,0.2c0.4-0.8,0.5-1.1,0.5-20.6l0.1-19.8
		l5.9,0c7.6,0,8.4-0.3,8.4-3.2c0-2.9-0.8-3.2-8.2-3.3l-6.2-0.1v-2.8c0-8.1,3.1-11.4,11.3-12.2c3.8-0.3,5-1.1,5.2-3.2
		C263.3,27.2,261.3,26.5,254.9,27.2 M298.2,33.9c-1.9,0.9-2,1.6-2,8.7l0,5.9h-3.7c-5.1,0-6.4,0.7-6.4,3.4c0,2.5,1.1,3.1,6.1,3.2
		l4,0.1l0,13c0,13.4,0.1,15.8,0.9,18.6c1.9,7,7.4,10.3,17.3,10.5c4,0.1,5.6-1.1,5.1-3.8c-0.4-2-1.2-2.4-5.2-2.8
		c-4.7-0.5-6.6-1.3-8.1-3.5c-1.5-2.2-1.5-1.8-1.5-17.7l-0.1-14.4l5.9,0c7.3,0,8.4-0.4,8.4-3.2c0-3-1.1-3.4-8.5-3.4h-5.8l-0.1-6.1
		c-0.1-7-0.2-7.4-1.9-8.4C301.6,33.4,299.3,33.3,298.2,33.9 M28.1,47.6c-4.9,0.9-9.6,4-11.7,7.7l-0.7,1.2l0-3.2c0-2.8-0.1-3.3-0.5-4
		C13.8,46.9,9.3,47,8,49.6l-0.5,1l0,30.8c0,34.5-0.1,31.9,1.6,33.1c1,0.7,4.2,0.8,5.2,0.1c1.4-1,1.4-0.7,1.4-14l0-12l0.7,1.1
		c6.1,9.9,22.3,10.8,30.6,1.8c8.3-9.1,8.6-27.5,0.5-37C42.9,49.1,35.1,46.4,28.1,47.6 M34.2,54.8c6.7,1.5,10.6,8.1,10.6,17.8
		c0,11.6-5.2,18-14.6,18c-8.5,0-13.5-5.5-14.3-15.6C14.7,60.6,22.4,52.1,34.2,54.8"/>
</g>
</svg>
